<svg width="1176" height="240" viewBox="0 0 1176 240" fill="none" xmlns="http://www.w3.org/2000/svg">
<path fill-rule="evenodd" clip-rule="evenodd" d="M0.399437 149.573C-0.133073 149.88 -0.133164 150.649 0.399276 150.956L50.5433 179.915C51.0375 180.2 51.3419 180.728 51.3419 181.298V239.2C51.3419 239.815 52.0076 240.199 52.54 239.892L102.684 210.933C103.178 210.648 103.482 210.12 103.482 209.55V151.187C103.482 150.616 103.178 150.088 102.684 149.803L51.3419 120.168L0.399437 149.573Z" fill="white"/>
<path fill-rule="evenodd" clip-rule="evenodd" d="M0.399437 29.1573C-0.133073 29.4646 -0.133164 30.2332 0.399276 30.5407L50.5433 59.4995C51.0375 59.7849 51.3419 60.3122 51.3419 60.8828V120.168L103.482 90.0565V30.7712C103.482 30.2005 103.178 29.6731 102.684 29.3877L52.1405 0.213931C51.6463 -0.0713099 51.0375 -0.0713104 50.5433 0.21393L0.399437 29.1573Z" fill="white"/>
<path fill-rule="evenodd" clip-rule="evenodd" d="M103.482 90.0565L154.825 119.707C155.319 119.992 155.623 120.52 155.623 121.09V178.992C155.623 179.607 156.289 179.992 156.821 179.684L206.965 150.725C207.459 150.44 207.764 149.913 207.764 149.342V90.9788C207.764 90.4081 207.459 89.8806 206.965 89.5953L156.422 60.4215C155.927 60.1363 155.319 60.1363 154.825 60.4215L103.482 90.0565Z" fill="white"/>
<path fill-rule="evenodd" clip-rule="evenodd" d="M404.293 158.386C395.521 167.641 384.02 172.317 370.081 172.317H338.015V71.4823H370.081C384.02 71.4823 395.521 76.159 404.293 85.4134C413.066 94.7668 417.45 106.945 417.45 121.949C417.45 136.856 413.066 149.13 404.293 158.386ZM427.489 62.518C412.188 46.5419 392.889 38.4548 370.081 38.4548H303.61V205.347H370.081C392.889 205.347 412.188 197.26 427.489 181.281C442.792 165.304 450.59 145.33 450.59 121.95C450.59 98.4688 442.792 78.4971 427.489 62.518Z" fill="white"/>
<path fill-rule="evenodd" clip-rule="evenodd" d="M524.839 176.994C516.067 176.994 508.562 174.071 502.812 168.128C496.964 162.186 493.942 154.585 493.942 145.427C493.942 136.368 496.964 128.768 502.812 122.825C508.562 116.882 516.067 113.959 524.839 113.959C533.611 113.959 541.116 116.882 546.964 122.825C552.91 128.768 555.931 136.368 555.931 145.427C555.931 154.585 552.91 162.186 546.964 168.128C541.116 174.071 533.611 176.994 524.839 176.994ZM569.868 100.614C557.588 88.435 542.481 82.2955 524.839 82.2955C507.198 82.2955 492.09 88.435 479.906 100.614C467.724 112.791 461.583 127.892 461.583 145.427C461.583 163.063 467.724 178.164 479.906 190.343C492.09 202.52 507.198 208.658 524.839 208.658C542.481 208.658 557.588 202.52 569.868 190.343C582.052 178.164 588.29 163.063 588.29 145.427C588.29 127.892 582.052 112.791 569.868 100.614Z" fill="white"/>
<path fill-rule="evenodd" clip-rule="evenodd" d="M714.414 85.6099L668.799 205.347H632.833L587.317 85.6099H622.892L650.768 166.083L678.838 85.6099H714.414Z" fill="white"/>
<path fill-rule="evenodd" clip-rule="evenodd" d="M749.803 133.445C751.654 126.723 754.97 121.364 759.842 117.565C765.009 113.569 771.636 111.524 779.531 111.524C786.158 111.524 792.201 113.473 797.465 117.272C802.339 120.876 805.749 126.236 807.504 133.445H749.803ZM823.001 100.516C811.597 88.435 796.977 82.2955 779.531 82.2955C761.109 82.2955 745.808 88.3375 734.013 100.321C722.219 112.402 716.274 127.502 716.274 145.427C716.274 163.55 722.317 178.748 734.21 190.733C746.197 202.618 762.182 208.658 781.87 208.658C804.775 208.658 822.319 200.085 834.015 183.036L834.698 182.158L808.478 167.058L807.992 167.738C802.24 175.339 793.566 179.138 782.358 179.138C765.106 179.138 754.578 172.512 750.389 158.971H838.791L838.986 158.094C839.765 153.711 840.156 149.423 840.156 145.427C840.156 127.697 834.404 112.597 823.001 100.516Z" fill="white"/>
<path fill-rule="evenodd" clip-rule="evenodd" d="M898.156 116.786V164.816C898.156 168.617 899.032 171.345 900.885 173.001C902.737 174.753 905.563 175.729 909.268 176.021C910.923 176.119 912.776 176.119 914.725 176.119C917.454 176.119 920.476 176.021 923.79 175.826H924.764V205.249L923.888 205.348C918.235 206.029 912.873 206.32 908.098 206.32C895.134 206.32 885.388 203.981 879.052 199.306C870.183 192.877 865.797 181.282 865.797 164.816V116.786H845.231V85.6094H865.797V52.1927H898.156V85.6094H924.764V116.786H898.156Z" fill="white"/>
<path fill-rule="evenodd" clip-rule="evenodd" d="M996.217 177.775C987.054 177.775 979.453 174.657 973.604 168.715C967.658 162.771 964.637 154.88 964.637 145.428C964.637 136.076 967.658 128.184 973.604 122.242C979.453 116.202 987.152 113.182 996.217 113.182C1005.28 113.182 1012.98 116.202 1019.02 122.242C1024.97 128.281 1027.99 136.076 1027.99 145.428C1027.99 154.88 1024.97 162.771 1019.02 168.715C1012.98 174.657 1005.38 177.775 996.217 177.775ZM1027.99 85.6098V97.7885C1018.83 87.4598 1006.26 82.2955 990.563 82.2955C974.675 82.2955 960.738 88.435 949.432 100.614C938.029 112.791 932.277 127.892 932.277 145.427C932.277 163.063 938.029 178.164 949.432 190.343C960.738 202.522 974.579 208.658 990.563 208.658C1006.26 208.658 1018.83 203.495 1027.99 193.168V205.347H1060.35V85.6098H1027.99Z" fill="white"/>
<path fill-rule="evenodd" clip-rule="evenodd" d="M1088.04 67.5848C1084.14 63.6883 1082.19 59.1106 1082.19 53.7512C1082.19 48.4893 1084.14 43.8141 1088.04 39.9161C1091.94 35.9221 1096.52 33.9731 1101.78 33.9731C1107.24 33.9731 1111.92 35.9221 1115.82 39.9161C1119.72 43.8141 1121.67 48.4893 1121.67 53.7512C1121.67 59.013 1119.72 63.6883 1115.82 67.5848C1111.92 71.3853 1107.24 73.3342 1101.78 73.3342C1096.52 73.3342 1091.94 71.3853 1088.04 67.5848Z" fill="white"/>
<path fill-rule="evenodd" clip-rule="evenodd" d="M1085.7 205.347H1118.15V85.6099H1085.7V205.347Z" fill="white"/>
<path fill-rule="evenodd" clip-rule="evenodd" d="M1143.45 205.346H1175.8V31.3418H1143.45V205.346Z" fill="white"/>
</svg>
